PathFileType	4	(X/Y/Z)	s06c0001.trc
DataRate	CameraRate	NumFrames	NumMarkers	Units	OrigDataRate	OrigDataStartFrame	OrigNumFrames
200	200	4	49	mm	200	0	2000
Frame#	Time	racr			lacr			c7			jug			rlel			rdr			llel			ldr			s2			lic			ric			lasi			rasi			rpsi			lpsi			rgt			lgt			rth1			rth2			rth3			rth4			rlfc			rmfc			rsh1			rsh2			rsh3			rsh4			rlmal			rmmal			rcal			rtoe			rmt5			rmt1			lth1			lth2			lth4			lth3			llfc			lmfc			llmal			lmmal			lcal			lmt1			lmt5			lsh1			lsh2			lsh3			lsh4			ltoe			
		X1	Y1	Z1	X2	Y2	Z2	X3	Y3	Z3	X4	Y4	Z4	X5	Y5	Z5	X6	Y6	Z6	X7	Y7	Z7	X8	Y8	Z8	X9	Y9	Z9	X10	Y10	Z10	X11	Y11	Z11	X12	Y12	Z12	X13	Y13	Z13	X14	Y14	Z14	X15	Y15	Z15	X16	Y16	Z16	X17	Y17	Z17	X18	Y18	Z18	X19	Y19	Z19	X20	Y20	Z20	X21	Y21	Z21	X22	Y22	Z22	X23	Y23	Z23	X24	Y24	Z24	X25	Y25	Z25	X26	Y26	Z26	X27	Y27	Z27	X28	Y28	Z28	X29	Y29	Z29	X30	Y30	Z30	X31	Y31	Z31	X32	Y32	Z32	X33	Y33	Z33	X34	Y34	Z34	X35	Y35	Z35	X36	Y36	Z36	X37	Y37	Z37	X38	Y38	Z38	X39	Y39	Z39	X40	Y40	Z40	X41	Y41	Z41	X42	Y42	Z42	X43	Y43	Z43	X44	Y44	Z44	X45	Y45	Z45	X46	Y46	Z46	X47	Y47	Z47	X48	Y48	Z48	X49	Y49	Z49	
0	0.0000	220.766663	1417.429321	396.247986	223.629852	1429.055542	42.280685	184.281052	1489.570923	216.377365	306.502075	1395.558228	222.934067	241.192032	1198.931519	573.444397	338.654724	1037.006348	763.061279	231.916702	1207.479614	-129.773193	328.827789	1068.826782	-329.624390	113.177887	964.131042	229.223907	265.317139	1007.960938	50.517448	276.019226	986.933716	387.891357	318.334534	955.233704	79.587852	330.827545	945.395020	349.734497	137.040558	997.981445	256.610321	123.954437	994.727478	192.971375	239.105835	871.635010	399.973022	244.868149	896.241028	27.249916	249.115082	749.567322	419.762512	257.557770	659.745728	412.932709	221.338226	582.333618	399.839417	294.485535	655.569946	404.099976	204.405777	473.033539	379.895752	220.040283	449.780762	272.018677	174.044220	352.953705	401.712860	188.154602	267.527130	381.902740	159.615204	186.075211	370.453033	216.316528	269.875824	354.591217	155.135590	99.330559	358.213898	199.722412	121.306992	273.899994	109.505135	65.661270	297.076630	382.286224	75.408333	334.587280	280.768280	43.177181	392.370850	304.051147	59.499012	276.888641	228.239609	763.868042	11.458369	242.392746	677.612549	16.654503	278.813965	674.140564	25.200005	210.141479	595.130920	28.583315	181.532730	477.041870	49.483856	202.905579	454.973572	158.838730	154.702896	98.766815	55.800896	171.173050	121.520409	140.832504	100.776703	58.854061	110.501030	310.649139	51.866219	132.577698	290.134735	50.712372	17.992729	159.554596	370.146729	23.636683	177.287079	284.304413	37.929901	149.945450	201.456329	37.912888	207.561310	286.238342	61.016556	380.425171	71.394104	69.434639	
1	0.0050	220.740097	1417.432983	396.249878	223.595932	1429.047241	42.288647	184.272675	1489.564331	216.354172	306.473541	1395.560669	222.908203	241.184113	1198.921387	573.446228	338.636078	1036.998291	763.065857	231.882309	1207.486084	-129.774017	328.793640	1068.824951	-329.612823	113.154129	964.123108	229.221817	265.282501	1007.965271	50.502857	276.010559	986.942993	387.886871	318.315033	955.237976	79.572899	330.790436	945.384521	349.732635	137.019501	997.983765	256.621307	123.927361	994.723999	192.972534	239.107269	871.626709	399.954407	244.842941	896.239014	27.265511	249.092880	749.581360	419.755798	257.555206	659.752747	412.939636	221.320450	582.355835	399.840851	294.491180	655.559814	404.086914	204.403702	473.031006	379.892212	220.057693	449.779388	272.021759	174.049881	352.938812	401.696960	188.151855	267.514191	381.903107	159.650040	186.052689	370.444122	216.312164	269.870728	354.587067	155.144974	99.330536	358.218353	199.733459	121.313210	273.888641	109.505135	65.661270	297.076630	382.306335	75.410652	334.581787	280.807159	43.135506	392.377899	304.054840	59.520275	276.894440	228.202301	763.872009	11.453835	242.377823	677.627747	16.646130	278.796722	674.158752	25.203781	210.139511	595.131409	28.574476	181.535309	477.038879	49.490601	202.880173	454.979889	158.826889	154.695389	98.765434	55.810638	171.183380	121.504318	140.833054	100.768097	58.866791	110.504959	310.670258	51.884537	132.572800	290.137024	50.707584	17.995153	159.546173	370.156036	23.629171	177.300858	284.295471	37.944771	149.938675	201.444153	37.917999	207.547729	286.235840	61.027248	380.421448	71.400681	69.434059	
2	0.0100	220.732956	1417.433105	396.255463	223.556381	1429.053589	42.284641	184.231888	1489.578125	216.386505	306.458466	1395.567627	222.909546	241.168915	1198.907593	573.429504	338.606384	1036.991943	763.073853	231.850403	1207.493286	-129.782272	328.762543	1068.824585	-329.613678	113.126640	964.118164	229.223511	265.252625	1007.954163	50.506409	275.997223	986.937134	387.893463	318.285767	955.241394	79.577469	330.783142	945.406616	349.723083	137.024628	997.915466	256.605560	123.900223	994.725647	192.958771	239.097061	871.629272	399.961304	244.824615	896.245483	27.252872	249.082657	749.577881	419.756439	257.552765	659.757202	412.938660	221.333511	582.350586	399.849060	294.474640	655.565186	404.096832	204.397171	473.029755	379.903717	220.048203	449.775116	272.012390	174.046310	352.925049	401.697754	188.160767	267.529419	381.900848	159.623596	186.057129	370.458099	216.308884	269.879395	354.586426	155.129562	99.334076	358.200043	199.743042	121.318169	273.885895	109.505135	65.661270	297.076630	382.308014	75.401596	334.594391	280.747498	43.177383	392.377228	304.050659	59.514301	276.894318	228.198776	763.862671	11.452776	242.353271	677.619690	16.648413	278.781311	674.161682	25.196280	210.121460	595.132568	28.576971	181.531952	477.035675	49.490482	202.856018	454.973267	158.812714	154.709869	98.761299	55.812336	171.171082	121.505135	140.827881	100.766640	58.850010	110.493019	310.651001	51.869560	132.581772	290.144928	50.719082	18.006899	159.534805	370.147400	23.635006	177.293335	284.311371	37.937557	149.926224	201.438477	37.926788	207.538528	286.240387	61.024662	380.435394	71.414383	69.431351	
3	0.0150	220.713531	1417.419922	396.241516	223.513046	1429.069336	42.287933	184.479294	1489.912598	215.893768	306.428741	1395.548950	222.904373	241.154846	1198.912964	573.428833	338.590515	1036.971558	763.052917	231.826691	1207.486450	-129.791214	328.777557	1068.756348	-329.650452	113.109131	964.116943	229.209854	265.584259	1007.827759	50.478554	275.964722	986.931824	387.888824	318.271637	955.244141	79.572601	330.750000	945.397522	349.709167	137.020981	997.906067	256.612305	123.875420	994.761047	193.010574	239.657928	871.465027	400.085419	244.792557	896.242004	27.256245	249.078003	749.583191	419.756012	257.617432	659.879517	413.023590	221.317230	582.329651	399.835815	294.144958	655.669495	403.839478	204.401398	473.031769	379.898499	220.030624	449.777527	272.005615	174.055817	352.937073	401.699341	187.749756	267.233093	381.554626	159.650085	186.108292	370.429260	216.258041	269.444763	354.289490	154.947647	99.372368	358.288727	199.906677	121.561264	273.224548	109.505135	65.661270	297.076630	382.298950	75.417419	334.593018	280.768677	43.167068	392.364563	304.063141	59.512489	276.907288	228.166916	763.857483	11.461160	242.332336	677.451904	16.944448	278.725311	673.933167	25.295120	210.101212	595.126892	28.586338	181.884109	476.657257	49.425488	202.865189	454.976379	158.810364	154.699173	98.760834	55.814201	171.171829	121.509995	140.843506	100.760803	58.860878	110.509590	310.665894	51.883331	132.566971	290.139801	50.706951	18.003082	159.519897	370.150848	23.634598	177.007767	285.281158	36.624718	149.925919	201.433716	37.928509	207.851379	285.804230	61.391338	380.421936	71.417221	69.446152	
